<?xml version="1.0" encoding="UTF-8"?>
<svg viewBox="0 0 680 210" width="680" height="210" xmlns="http://www.w3.org/2000/svg">
  <!-- Fond bleu -->
  <path d="M18 45 C8 28, 35 15, 85 18 C165 8, 300 5, 390 10 C510 5, 590 12, 640 22 C672 20, 690 40, 678 62 C695 98, 692 145, 678 172 C692 192, 672 208, 640 205 C590 215, 510 218, 390 213 C300 218, 165 215, 85 205 C35 208, 8 192, 22 172 C5 145, 2 98, 22 62 C8 42, 12 44, 18 45 Z" fill="#2E64C8"/>

  <!-- Fond rose -->
  <path d="M32 54 C25 44, 48 34, 92 37 C165 27, 300 24, 390 28 C510 24, 585 30, 632 40 C662 38, 678 52, 670 68 C682 100, 680 140, 670 165 C680 182, 662 196, 632 194 C585 202, 510 204, 390 200 C300 204, 165 202, 92 194 C48 196, 25 182, 35 165 C22 140, 20 100, 35 68 C25 52, 28 54, 32 54 Z" fill="#E91E7D"/>

  <!-- SHEIN'S - rapproché -->

  <!-- SHEIN -->
  <text x="250" y="138" text-anchor="middle" font-family="Arial, sans-serif" font-size="114" font-weight="900" letter-spacing="5"
        stroke="#0a0a0a" stroke-width="12" stroke-linejoin="round" stroke-linecap="round" fill="#0a0a0a">SHEIN</text>

  <!-- Apostrophe -->
  <ellipse cx="485" cy="52" rx="9" ry="11" fill="#0a0a0a"/>
  <ellipse cx="487" cy="70" rx="6" ry="9" fill="#0a0a0a"/>

  <!-- S GRAND - rapproché -->
  <text x="545" y="158" text-anchor="middle" font-family="Arial, sans-serif" font-size="130" font-weight="900"
        stroke="#0a0a0a" stroke-width="12" stroke-linejoin="round" stroke-linecap="round" fill="#0a0a0a">S</text>

  <!-- SHOPPING CENTRE -->
  <text x="350" y="195" text-anchor="middle" font-family="Arial, sans-serif" font-size="26" font-weight="bold" font-style="italic"
        stroke="#0a0a0a" stroke-width="5" stroke-linejoin="round" fill="none">SHOPPING CENTRE</text>

  <text x="350" y="195" text-anchor="middle" font-family="Arial, sans-serif" font-size="26" font-weight="bold" font-style="italic"
        fill="#FFD700">SHOPPING CENTRE</text>
</svg>
