<?xml version="1.0" encoding="UTF-8"?>
<svg xmlns="http://www.w3.org/2000/svg" viewBox="0 0 500 180" width="500" height="180">
  <defs>
    <filter id="shadow" x="-5%" y="-5%" width="110%" height="110%">
      <feDropShadow dx="2" dy="2" stdDeviation="1" flood-color="#000" flood-opacity="0.3"/>
    </filter>
  </defs>

  <!-- Fond blob rose avec contour bleu -->
  <path id="blue-outline"
        d="M15 35
           Q5 22 30 14
           Q70 2 130 8
           Q200 0 250 5
           Q340 0 410 8
           Q470 2 490 14
           Q505 22 498 40
           Q508 65 502 95
           Q512 125 492 145
           Q465 165 400 162
           Q320 172 250 165
           Q180 172 100 162
           Q35 165 15 145
           Q-5 125 5 95
           Q-5 65 5 40
           Q2 25 15 35 Z"
        fill="#2563EB" stroke="none"/>

  <path id="pink-fill"
        d="M25 42
           Q15 32 38 25
           Q75 15 130 20
           Q195 12 250 16
           Q335 12 405 20
           Q460 15 482 25
           Q498 32 492 48
           Q502 72 496 100
           Q505 125 488 142
           Q462 158 400 155
           Q322 164 250 158
           Q178 164 102 155
           Q40 158 22 142
           Q8 125 15 100
           Q8 72 15 48
           Q12 35 25 42 Z"
        fill="#E91E7D" stroke="none"/>

  <!-- SHEIN'S en lettres noires -->
  <text x="250" y="95"
        text-anchor="middle"
        font-family="'Arial Black', Impact, sans-serif"
        font-size="72"
        font-weight="900"
        fill="#0a0a0a"
        filter="url(#shadow)"
        letter-spacing="-2">SHEIN'S</text>

  <!-- SHOPPING CENTRE en jaune -->
  <text x="250" y="145"
        text-anchor="middle"
        font-family="'Arial Black', Impact, sans-serif"
        font-size="28"
        font-weight="900"
        font-style="italic"
        stroke="#0a0a0a"
        stroke-width="3"
        fill="#FFD700"
        letter-spacing="1">SHOPPING CENTRE</text>
</svg>
