<?xml version="1.0" encoding="UTF-8" standalone="no"?>
<svg
   viewBox="0 0 650 200"
   width="650"
   height="200"
   version="1.1"
   id="svg19"
   xmlns="http://www.w3.org/2000/svg"
   xmlns:svg="http://www.w3.org/2000/svg">
  <defs
     id="defs3">
    <filter
       id="shadow"
       x="0"
       y="0"
       width="1"
       height="1">
      <feDropShadow
         dx="2"
         dy="2"
         stdDeviation="1"
         flood-color="#000"
         flood-opacity="0.2" />
    </filter>
  </defs>
  <!-- Fond blob rose avec contour bleu organique -->
  <path
     id="blue-outline"
     d="M18 45            C8 28, 35 15, 85 18            C165 8, 300 5, 380 10            C480 5, 565 12, 610 22            C642 20, 658 38, 648 58            C662 90, 658 130, 648 155            C658 172, 642 185, 610 182            C565 192, 480 195, 380 190            C300 195, 165 192, 85 182            C35 185, 8 172, 20 155            C5 130, 2 90, 20 58            C8 40, 12 42, 18 45 Z"
     fill="#2E64C8"
     stroke="none" />
  <path
     id="pink-fill"
     d="M32 52            C25 42, 48 32, 92 35            C165 25, 300 22, 380 26            C480 22, 560 28, 602 36            C630 34, 645 48, 638 62            C650 88, 646 125, 638 148            C645 162, 630 174, 602 172            C560 180, 480 182, 380 178            C300 182, 165 180, 92 172            C48 174, 25 162, 35 148            C22 125, 20 88, 35 62            C25 48, 28 50, 32 52 Z"
     fill="#E91E7D"
     stroke="none" />
  <!-- SHEIN'S - Texte style bubble -->
  <g
     id="sheins-text"
     filter="url(#shadow)">
    <!-- SHEIN -->
    <g
       aria-label="SHEIN"
       id="text7"
       style="font-weight:900;font-size:88px;font-family:'Arial Black', Gadget, sans-serif;fill:#0a0a0a">
      <path
         d="m 102.72266,67.867187 v 13.578125 q -5.28516,-2.363281 -10.312504,-3.566406 -5.027344,-1.203125 -9.496094,-1.203125 -5.929687,0 -8.765625,1.632813 -2.835937,1.632812 -2.835937,5.070312 0,2.578125 1.890625,4.039063 1.933594,1.417968 6.960937,2.449218 l 7.046875,1.417969 q 10.699219,2.148438 15.210943,6.53125 4.51171,4.382814 4.51171,12.460934 0,10.61329 -6.3164,15.8125 -6.27344,5.15625 -19.207034,5.15625 -6.101562,0 -12.246094,-1.16015 -6.144531,-1.16016 -12.289062,-3.4375 v -13.96485 q 6.144531,3.26563 11.859375,4.94141 5.757812,1.63281 11.085937,1.63281 5.414063,0 8.292969,-1.80468 2.878906,-1.80469 2.878906,-5.15625 0,-3.00782 -1.976562,-4.64063 -1.933594,-1.63281 -7.777344,-2.92187 l -6.402344,-1.41797 q -9.625,-2.0625 -14.09375,-6.574223 -4.425781,-4.511718 -4.425781,-12.160156 0,-9.582031 6.1875,-14.738281 6.1875,-5.15625 17.789063,-5.15625 5.285156,0 10.871093,0.816406 5.585938,0.773438 11.558598,2.363281 z"
         id="path23" />
      <path
         d="M 121.45703,65.847656 H 138 v 24.449219 h 24.40625 V 65.847656 h 16.54297 V 130 H 162.40625 V 102.80078 H 138 V 130 h -16.54297 z"
         id="path25" />
      <path
         d="M 195.10547,65.847656 H 239.75 v 12.503906 h -28.10156 v 11.945313 h 26.42578 v 12.503905 h -26.42578 v 14.69531 h 29.04687 V 130 h -45.58984 z"
         id="path27" />
      <path
         d="m 255.21875,65.847656 h 16.54297 V 130 h -16.54297 z"
         id="path29" />
      <path
         d="m 287.96094,65.847656 h 18.47656 l 23.33203,44.000004 V 65.847656 h 15.68359 V 130 H 326.97656 L 303.64453,86 v 44 h -15.68359 z"
         id="path31" />
    </g>
    <!-- Apostrophe -->
    <g
       aria-label="'"
       id="text9"
       style="font-weight:900;font-size:45px;font-family:'Arial Black', Gadget, sans-serif;fill:#0a0a0a">
      <path
         d="m 407.49219,37.194824 v 12.194824 h -5.20752 V 37.194824 Z"
         id="path34" />
    </g>
    <!-- S final GRAND -->
    <g
       aria-label="S"
       id="text11"
       style="font-weight:900;font-size:125px;font-family:'Arial Black', Gadget, sans-serif;fill:#0a0a0a">
      <path
         d="m 494.89014,59.743164 v 19.287109 q -7.50733,-3.356933 -14.64844,-5.065918 -7.14111,-1.708984 -13.48877,-1.708984 -8.42285,0 -12.45117,2.319336 -4.02832,2.319336 -4.02832,7.202148 0,3.66211 2.68554,5.737305 2.74659,2.01416 9.8877,3.479004 l 10.00977,2.01416 q 15.19775,3.051758 21.60644,9.277346 6.40869,6.22558 6.40869,17.70019 0,15.07569 -8.97217,22.46094 -8.91113,7.32422 -27.28271,7.32422 -8.66699,0 -17.39502,-1.64795 -8.72803,-1.64795 -17.45606,-4.88281 v -19.83643 q 8.72803,4.63867 16.84571,7.01904 8.17871,2.31934 15.74707,2.31934 7.69043,0 11.77978,-2.56348 4.08936,-2.56347 4.08936,-7.32421 0,-4.27247 -2.80762,-6.5918 -2.74658,-2.31934 -11.04736,-4.15039 l -9.09424,-2.01416 q -13.67187,-2.92969 -20.01953,-9.33838 -6.28662,-6.408692 -6.28662,-17.27295 0,-13.61084 8.78906,-20.935059 8.78906,-7.324219 25.26856,-7.324219 7.50732,0 15.44189,1.159668 7.93457,1.098633 16.41846,3.356934 z"
         id="path37" />
    </g>
  </g>
  <!-- SHOPPING CENTRE - Jaune avec contour noir -->
  <g
     id="shopping-centre">
    <g
       aria-label="SHOPPING CENTRE"
       id="text14"
       style="font-style:italic;font-weight:900;font-size:25px;font-family:'Arial Black', Gadget, sans-serif;letter-spacing:1;text-anchor:middle;fill:none;stroke:#0a0a0a;stroke-width:5;stroke-linejoin:round">
      <path
         d="m 206.62427,170.34863 -0.75684,3.85742 q -1.37939,-0.68359 -2.72217,-1.01318 -1.34277,-0.3418 -2.62451,-0.3418 -1.75781,0 -2.74658,0.54932 -0.97656,0.54932 -0.97656,1.52588 0,0.62256 0.42724,0.97656 0.43946,0.3418 1.79444,0.67139 l 1.92871,0.47607 q 2.41699,0.61035 3.54004,1.77002 1.13525,1.14746 1.13525,2.97852 0,2.96631 -2.2583,4.76074 -2.24609,1.79443 -6.04248,1.79443 -1.77002,0 -3.52783,-0.32959 -1.74561,-0.32959 -3.41797,-0.97656 l 0.74463,-3.96728 q 1.62353,0.93994 3.14941,1.4038 1.53809,0.46387 3.02735,0.46387 1.61132,0 2.6123,-0.65918 1.01318,-0.65918 1.01318,-1.68457 0,-0.67138 -0.45166,-1.0376 -0.45166,-0.37841 -1.97754,-0.76904 l -1.9165,-0.47607 q -2.12402,-0.52491 -3.16162,-1.66016 -1.0376,-1.13525 -1.0376,-2.94189 0,-2.84424 2.17285,-4.55323 2.18506,-1.72119 5.87159,-1.72119 1.47705,0 3.02734,0.23194 1.5625,0.21972 3.17383,0.67138 z"
         id="path40" />
      <path
         d="m 213.08081,169.7749 h 4.69971 l -1.35498,6.9458 h 6.93359 l 1.34277,-6.9458 h 4.69971 L 225.84937,188 h -4.69971 l 1.50146,-7.72705 h -6.92138 L 214.22827,188 h -4.69971 z"
         id="path42" />
      <path
         d="m 246.30737,177.24561 q 0,-2.14844 -0.97656,-3.27149 -0.96435,-1.12305 -2.80762,-1.12305 -2.4414,0 -4.10156,2.19727 -1.64795,2.18506 -1.64795,5.48096 0,2.09961 0.96436,3.25927 0.96435,1.15967 2.68554,1.15967 1.40381,0 2.49024,-0.58594 1.09863,-0.59814 1.86767,-1.75781 0.73243,-1.11084 1.12305,-2.50244 0.40283,-1.3916 0.40283,-2.85644 z m -3.10058,-7.8003 q 3.63769,0 5.84717,2.02637 2.22167,2.01416 2.22167,5.27344 0,2.22168 -0.68359,4.19922 -0.67139,1.97753 -1.96533,3.55224 -1.58692,1.94092 -3.75977,2.90528 -2.16064,0.95214 -4.99267,0.95214 -3.62549,0 -5.83496,-2.01416 -2.20948,-2.01416 -2.20948,-5.28564 0,-2.23389 0.67139,-4.21143 0.67139,-1.97754 1.97754,-3.56445 1.5625,-1.92871 3.72314,-2.88086 2.17286,-0.95215 5.00489,-0.95215 z"
         id="path44" />
      <path
         d="m 257.2561,169.7749 h 7.8003 q 2.86865,0 4.47998,1.31836 1.62353,1.30615 1.62353,3.6377 0,1.42822 -0.53711,2.72216 -0.53711,1.28174 -1.53808,2.2461 -1.08643,1.0376 -2.58789,1.51367 -1.50147,0.46387 -3.77198,0.46387 h -3.10058 L 258.40356,188 h -4.6997 z m 4.05274,3.40576 -1.00098,5.09034 h 2.6001 q 1.66016,0 2.53906,-0.78125 0.87891,-0.78125 0.87891,-2.27051 0,-0.98877 -0.63477,-1.51367 -0.62256,-0.52491 -1.80664,-0.52491 z"
         id="path46" />
      <path
         d="m 276.57886,169.7749 h 7.80029 q 2.86865,0 4.47998,1.31836 1.62354,1.30615 1.62354,3.6377 0,1.42822 -0.53711,2.72216 -0.53711,1.28174 -1.53809,2.2461 -1.08643,1.0376 -2.58789,1.51367 -1.50146,0.46387 -3.77197,0.46387 h -3.10059 L 277.72632,188 h -4.69971 z m 4.05273,3.40576 -1.00097,5.09034 h 2.60009 q 1.66016,0 2.53907,-0.78125 0.8789,-0.78125 0.8789,-2.27051 0,-0.98877 -0.63476,-1.51367 -0.62256,-0.52491 -1.80664,-0.52491 z"
         id="path48" />
      <path
         d="m 295.90161,169.7749 h 4.69971 L 297.04907,188 h -4.6997 z"
         id="path50" />
      <path
         d="m 306.20337,169.7749 h 5.24902 l 4.17481,12.62207 2.45361,-12.62207 h 4.44336 L 318.97192,188 H 313.7229 L 309.5481,175.37793 307.10669,188 h -4.45557 z"
         id="path52" />
      <path
         d="m 341.07788,186.64502 q -1.78223,0.8667 -3.69873,1.29394 -1.9165,0.41504 -4.10156,0.41504 -3.88184,0 -6.10352,-1.96533 -2.22168,-1.97754 -2.22168,-5.3833 0,-2.20947 0.6958,-4.13818 0.6958,-1.94092 2.0752,-3.54004 1.68457,-1.95313 3.96728,-2.91748 2.29493,-0.96436 5.23682,-0.96436 1.63574,0 3.2959,0.3418 1.66015,0.3418 3.27148,1.01318 l -0.72021,3.77198 q -1.48926,-0.8667 -2.91748,-1.29395 -1.41602,-0.42725 -2.85645,-0.42725 -3.14941,0 -5.12695,2.09961 -1.97754,2.09961 -1.97754,5.39551 0,2.18506 1.14746,3.39356 1.15967,1.20849 3.25928,1.20849 0.68359,0 1.36719,-0.0855 0.68359,-0.0976 1.37939,-0.29297 l 0.6958,-3.54003 h -2.86865 l 0.59814,-3.14942 h 7.29981 z"
         id="path54" />
      <path
         d="m 370.42163,187.14551 q -1.68457,0.59814 -3.23486,0.90332 -1.5503,0.30517 -2.9419,0.30517 -3.67431,0 -5.87158,-2.01416 -2.19726,-2.01416 -2.19726,-5.33447 0,-2.18506 0.6958,-4.11377 0.6958,-1.94092 2.05078,-3.54004 1.59912,-1.87988 3.84521,-2.89306 2.2583,-1.01319 4.8584,-1.01319 1.41602,0 2.84424,0.3418 1.42822,0.32959 2.90527,1.01318 l -0.75683,3.77198 q -1.17188,-0.89112 -2.35596,-1.30616 -1.18408,-0.41504 -2.53906,-0.41504 -2.81983,0 -4.72412,2.17286 -1.9043,2.17285 -1.9043,5.43212 0,2.09961 1.17187,3.2959 1.17188,1.19629 3.23487,1.19629 1.23291,0 2.6123,-0.43945 1.3916,-0.45166 3.11279,-1.40381 z"
         id="path56" />
      <path
         d="m 378.69702,169.7749 h 12.6709 l -0.6958,3.55225 h -7.97119 l -0.65918,3.39355 h 7.50732 l -0.70801,3.55225 h -7.49511 l -0.80567,4.1748 h 8.22754 L 388.09644,188 h -12.95166 z"
         id="path58" />
      <path
         d="m 396.77466,169.7749 h 5.24902 l 4.17481,12.62207 2.45361,-12.62207 h 4.44336 L 409.54321,188 h -5.24902 L 400.11938,175.37793 397.67798,188 h -4.45557 z"
         id="path60" />
      <path
         d="m 416.52466,169.7749 h 16.79687 l -0.6958,3.55225 h -6.05469 L 423.7146,188 h -4.69971 l 2.85645,-14.67285 h -6.05469 z"
         id="path62" />
      <path
         d="m 441.85327,177.85596 q 1.59912,0 2.41699,-0.74463 0.83008,-0.74463 0.83008,-2.18506 0,-0.90332 -0.57373,-1.31836 -0.56152,-0.42725 -1.78223,-0.42725 h -1.94091 l -0.92774,4.6753 z m -2.6001,3.24707 L 437.89819,188 h -4.6997 l 3.55224,-18.2251 h 6.9458 q 3.00293,0 4.55323,1.12305 1.55029,1.12305 1.55029,3.3081 0,2.20948 -1.2207,3.6377 -1.22071,1.42822 -3.30811,1.63574 0.95215,0.19531 1.58691,0.97656 0.63477,0.76905 1.11084,2.36817 L 449.51929,188 h -4.6753 l -1.36718,-4.52881 q -0.41504,-1.35498 -1.01319,-1.85547 -0.58593,-0.51269 -1.70898,-0.51269 z"
         id="path64" />
      <path
         d="m 457.00122,169.7749 h 12.6709 l -0.6958,3.55225 h -7.97119 l -0.65918,3.39355 h 7.50732 l -0.70801,3.55225 h -7.49511 l -0.80567,4.1748 h 8.22754 L 466.40063,188 h -12.95166 z"
         id="path66" />
    </g>
    <g
       aria-label="SHOPPING CENTRE"
       id="text16"
       style="font-style:italic;font-weight:900;font-size:25px;font-family:'Arial Black', Gadget, sans-serif;letter-spacing:1;text-anchor:middle;fill:#ffd700">
      <path
         d="m 206.62427,170.34863 -0.75684,3.85742 q -1.37939,-0.68359 -2.72217,-1.01318 -1.34277,-0.3418 -2.62451,-0.3418 -1.75781,0 -2.74658,0.54932 -0.97656,0.54932 -0.97656,1.52588 0,0.62256 0.42724,0.97656 0.43946,0.3418 1.79444,0.67139 l 1.92871,0.47607 q 2.41699,0.61035 3.54004,1.77002 1.13525,1.14746 1.13525,2.97852 0,2.96631 -2.2583,4.76074 -2.24609,1.79443 -6.04248,1.79443 -1.77002,0 -3.52783,-0.32959 -1.74561,-0.32959 -3.41797,-0.97656 l 0.74463,-3.96728 q 1.62353,0.93994 3.14941,1.4038 1.53809,0.46387 3.02735,0.46387 1.61132,0 2.6123,-0.65918 1.01318,-0.65918 1.01318,-1.68457 0,-0.67138 -0.45166,-1.0376 -0.45166,-0.37841 -1.97754,-0.76904 l -1.9165,-0.47607 q -2.12402,-0.52491 -3.16162,-1.66016 -1.0376,-1.13525 -1.0376,-2.94189 0,-2.84424 2.17285,-4.55323 2.18506,-1.72119 5.87159,-1.72119 1.47705,0 3.02734,0.23194 1.5625,0.21972 3.17383,0.67138 z"
         id="path69" />
      <path
         d="m 213.08081,169.7749 h 4.69971 l -1.35498,6.9458 h 6.93359 l 1.34277,-6.9458 h 4.69971 L 225.84937,188 h -4.69971 l 1.50146,-7.72705 h -6.92138 L 214.22827,188 h -4.69971 z"
         id="path71" />
      <path
         d="m 246.30737,177.24561 q 0,-2.14844 -0.97656,-3.27149 -0.96435,-1.12305 -2.80762,-1.12305 -2.4414,0 -4.10156,2.19727 -1.64795,2.18506 -1.64795,5.48096 0,2.09961 0.96436,3.25927 0.96435,1.15967 2.68554,1.15967 1.40381,0 2.49024,-0.58594 1.09863,-0.59814 1.86767,-1.75781 0.73243,-1.11084 1.12305,-2.50244 0.40283,-1.3916 0.40283,-2.85644 z m -3.10058,-7.8003 q 3.63769,0 5.84717,2.02637 2.22167,2.01416 2.22167,5.27344 0,2.22168 -0.68359,4.19922 -0.67139,1.97753 -1.96533,3.55224 -1.58692,1.94092 -3.75977,2.90528 -2.16064,0.95214 -4.99267,0.95214 -3.62549,0 -5.83496,-2.01416 -2.20948,-2.01416 -2.20948,-5.28564 0,-2.23389 0.67139,-4.21143 0.67139,-1.97754 1.97754,-3.56445 1.5625,-1.92871 3.72314,-2.88086 2.17286,-0.95215 5.00489,-0.95215 z"
         id="path73" />
      <path
         d="m 257.2561,169.7749 h 7.8003 q 2.86865,0 4.47998,1.31836 1.62353,1.30615 1.62353,3.6377 0,1.42822 -0.53711,2.72216 -0.53711,1.28174 -1.53808,2.2461 -1.08643,1.0376 -2.58789,1.51367 -1.50147,0.46387 -3.77198,0.46387 h -3.10058 L 258.40356,188 h -4.6997 z m 4.05274,3.40576 -1.00098,5.09034 h 2.6001 q 1.66016,0 2.53906,-0.78125 0.87891,-0.78125 0.87891,-2.27051 0,-0.98877 -0.63477,-1.51367 -0.62256,-0.52491 -1.80664,-0.52491 z"
         id="path75" />
      <path
         d="m 276.57886,169.7749 h 7.80029 q 2.86865,0 4.47998,1.31836 1.62354,1.30615 1.62354,3.6377 0,1.42822 -0.53711,2.72216 -0.53711,1.28174 -1.53809,2.2461 -1.08643,1.0376 -2.58789,1.51367 -1.50146,0.46387 -3.77197,0.46387 h -3.10059 L 277.72632,188 h -4.69971 z m 4.05273,3.40576 -1.00097,5.09034 h 2.60009 q 1.66016,0 2.53907,-0.78125 0.8789,-0.78125 0.8789,-2.27051 0,-0.98877 -0.63476,-1.51367 -0.62256,-0.52491 -1.80664,-0.52491 z"
         id="path77" />
      <path
         d="m 295.90161,169.7749 h 4.69971 L 297.04907,188 h -4.6997 z"
         id="path79" />
      <path
         d="m 306.20337,169.7749 h 5.24902 l 4.17481,12.62207 2.45361,-12.62207 h 4.44336 L 318.97192,188 H 313.7229 L 309.5481,175.37793 307.10669,188 h -4.45557 z"
         id="path81" />
      <path
         d="m 341.07788,186.64502 q -1.78223,0.8667 -3.69873,1.29394 -1.9165,0.41504 -4.10156,0.41504 -3.88184,0 -6.10352,-1.96533 -2.22168,-1.97754 -2.22168,-5.3833 0,-2.20947 0.6958,-4.13818 0.6958,-1.94092 2.0752,-3.54004 1.68457,-1.95313 3.96728,-2.91748 2.29493,-0.96436 5.23682,-0.96436 1.63574,0 3.2959,0.3418 1.66015,0.3418 3.27148,1.01318 l -0.72021,3.77198 q -1.48926,-0.8667 -2.91748,-1.29395 -1.41602,-0.42725 -2.85645,-0.42725 -3.14941,0 -5.12695,2.09961 -1.97754,2.09961 -1.97754,5.39551 0,2.18506 1.14746,3.39356 1.15967,1.20849 3.25928,1.20849 0.68359,0 1.36719,-0.0855 0.68359,-0.0976 1.37939,-0.29297 l 0.6958,-3.54003 h -2.86865 l 0.59814,-3.14942 h 7.29981 z"
         id="path83" />
      <path
         d="m 370.42163,187.14551 q -1.68457,0.59814 -3.23486,0.90332 -1.5503,0.30517 -2.9419,0.30517 -3.67431,0 -5.87158,-2.01416 -2.19726,-2.01416 -2.19726,-5.33447 0,-2.18506 0.6958,-4.11377 0.6958,-1.94092 2.05078,-3.54004 1.59912,-1.87988 3.84521,-2.89306 2.2583,-1.01319 4.8584,-1.01319 1.41602,0 2.84424,0.3418 1.42822,0.32959 2.90527,1.01318 l -0.75683,3.77198 q -1.17188,-0.89112 -2.35596,-1.30616 -1.18408,-0.41504 -2.53906,-0.41504 -2.81983,0 -4.72412,2.17286 -1.9043,2.17285 -1.9043,5.43212 0,2.09961 1.17187,3.2959 1.17188,1.19629 3.23487,1.19629 1.23291,0 2.6123,-0.43945 1.3916,-0.45166 3.11279,-1.40381 z"
         id="path85" />
      <path
         d="m 378.69702,169.7749 h 12.6709 l -0.6958,3.55225 h -7.97119 l -0.65918,3.39355 h 7.50732 l -0.70801,3.55225 h -7.49511 l -0.80567,4.1748 h 8.22754 L 388.09644,188 h -12.95166 z"
         id="path87" />
      <path
         d="m 396.77466,169.7749 h 5.24902 l 4.17481,12.62207 2.45361,-12.62207 h 4.44336 L 409.54321,188 h -5.24902 L 400.11938,175.37793 397.67798,188 h -4.45557 z"
         id="path89" />
      <path
         d="m 416.52466,169.7749 h 16.79687 l -0.6958,3.55225 h -6.05469 L 423.7146,188 h -4.69971 l 2.85645,-14.67285 h -6.05469 z"
         id="path91" />
      <path
         d="m 441.85327,177.85596 q 1.59912,0 2.41699,-0.74463 0.83008,-0.74463 0.83008,-2.18506 0,-0.90332 -0.57373,-1.31836 -0.56152,-0.42725 -1.78223,-0.42725 h -1.94091 l -0.92774,4.6753 z m -2.6001,3.24707 L 437.89819,188 h -4.6997 l 3.55224,-18.2251 h 6.9458 q 3.00293,0 4.55323,1.12305 1.55029,1.12305 1.55029,3.3081 0,2.20948 -1.2207,3.6377 -1.22071,1.42822 -3.30811,1.63574 0.95215,0.19531 1.58691,0.97656 0.63477,0.76905 1.11084,2.36817 L 449.51929,188 h -4.6753 l -1.36718,-4.52881 q -0.41504,-1.35498 -1.01319,-1.85547 -0.58593,-0.51269 -1.70898,-0.51269 z"
         id="path93" />
      <path
         d="m 457.00122,169.7749 h 12.6709 l -0.6958,3.55225 h -7.97119 l -0.65918,3.39355 h 7.50732 l -0.70801,3.55225 h -7.49511 l -0.80567,4.1748 h 8.22754 L 466.40063,188 h -12.95166 z"
         id="path95" />
    </g>
  </g>
</svg>
